<?xml version="1.0" encoding="UTF-8"?>
<svg id="Layer_2" data-name="Layer 2" xmlns="http://www.w3.org/2000/svg" viewBox="0 0 263.84 36.14">
  <defs>
    <style>
      .cls-1 {
        fill: #11302b;
      }
    </style>
  </defs>
  <g id="Layer_1-2" data-name="Layer 1">
    <g>
      <path class="cls-1" d="m27.05,9.45h-1.82c-.34-1.28-1.05-2.65-2.13-4.11-1.08-1.46-2.11-2.26-3.1-2.41-.5-.06-1.1-.11-1.79-.15-.69-.03-1.47-.05-2.35-.05h-5.78v13.85h3.96c1.2,0,2.13-.13,2.79-.38.66-.25,1.23-.64,1.7-1.15.32-.36.62-.91.89-1.66.27-.75.44-1.56.52-2.42h1.85v13.54h-1.85c-.05-.71-.21-1.52-.5-2.43-.28-.91-.59-1.56-.91-1.97-.49-.6-1.1-1.01-1.83-1.23-.74-.22-1.62-.33-2.66-.33h-3.96v11.88c0,.53.11,1.01.32,1.43.21.42.58.76,1.12,1.02.24.11.77.25,1.58.41.81.16,1.43.25,1.85.27v1.73H0v-1.73c.49-.03,1.13-.08,1.94-.16.81-.07,1.34-.17,1.58-.28.49-.21.84-.52,1.06-.94.22-.41.33-.91.33-1.49V5.83c0-.53-.09-1.01-.27-1.42-.18-.41-.55-.75-1.12-1.01-.44-.21-1.02-.4-1.76-.56-.74-.16-1.32-.26-1.76-.29V.83h27.05v8.63Z"/>
      <path class="cls-1" d="m67.12,25.15l-.66,10.16h-28.63v-1.73c.49-.03,1.13-.1,1.94-.21.81-.11,1.34-.21,1.58-.33.52-.24.88-.56,1.08-.95.2-.39.3-.88.3-1.48V5.83c0-.53-.09-1.01-.27-1.42-.18-.41-.55-.75-1.12-1.01-.44-.21-1.02-.4-1.76-.56-.74-.16-1.32-.26-1.76-.29V.83h26.68v8.31h-1.82c-.32-1.23-1.02-2.54-2.1-3.92-1.08-1.39-2.1-2.14-3.07-2.27-.5-.06-1.1-.11-1.8-.15-.7-.03-1.49-.05-2.38-.05h-5.42v13.71h3.89c1.25,0,2.16-.12,2.73-.35.58-.23,1.08-.63,1.52-1.18.36-.47.66-1.1.91-1.88.25-.79.42-1.53.5-2.22h1.82v13.49h-1.82c-.06-.78-.24-1.6-.52-2.47-.28-.87-.58-1.49-.89-1.88-.5-.63-1.07-1.05-1.71-1.24-.64-.19-1.49-.29-2.54-.29h-3.89v10.35c0,1.04.07,1.86.22,2.45.15.6.43,1.05.85,1.36.42.31,1,.51,1.73.6.73.09,1.77.13,3.11.13h2.11c.87,0,1.61-.03,2.21-.1.62-.06,1.25-.18,1.91-.35.66-.17,1.12-.4,1.4-.69.75-.78,1.53-1.96,2.35-3.54.82-1.58,1.34-2.74,1.57-3.49h1.75Z"/>
      <path class="cls-1" d="m108.23,35.31h-9.28c-2.06-3.22-3.92-6.01-5.58-8.36-1.66-2.35-3.46-4.77-5.41-7.27h-3.52v10.94c0,.57.09,1.07.27,1.49.18.43.56.76,1.14.98.29.11.8.22,1.53.32.73.1,1.34.15,1.85.17v1.73h-14.58v-1.73c.39-.03.95-.09,1.69-.17.74-.08,1.25-.19,1.54-.32.49-.21.84-.52,1.06-.92.22-.4.33-.92.33-1.56V5.69c0-.57-.08-1.07-.24-1.51-.16-.44-.54-.77-1.14-1-.41-.15-.93-.28-1.58-.4-.65-.12-1.2-.2-1.65-.23V.83h15.92c1.46,0,2.83.15,4.11.45,1.28.3,2.44.78,3.47,1.45,1,.65,1.81,1.49,2.41,2.54.6,1.05.9,2.3.9,3.78,0,1.33-.2,2.5-.61,3.52-.41,1.02-1,1.9-1.8,2.65-.73.7-1.6,1.3-2.62,1.81-1.02.51-2.15.94-3.38,1.3,1.7,2.25,3.11,4.15,4.24,5.69,1.13,1.54,2.51,3.41,4.14,5.61.71.97,1.36,1.69,1.93,2.15.57.46,1.15.84,1.71,1.13.42.21.95.37,1.58.49.63.11,1.16.18,1.58.19v1.73Zm-12.78-25.71c0-2.09-.6-3.75-1.8-4.97-1.2-1.22-2.89-1.83-5.08-1.83h-4.13v14.8h3.18c2.24,0,4.1-.72,5.59-2.15,1.49-1.43,2.24-3.38,2.24-5.84Z"/>
      <path class="cls-1" d="m147.95,2.55c-.42.02-.93.11-1.53.28s-1.09.38-1.48.62c-.55.34-.99.78-1.32,1.31s-.66,1.17-.98,1.9c-1.09,2.58-2.71,6.59-4.88,12.04-2.17,5.45-4.41,11.13-6.71,17.05h-2.02c-2.33-6.27-4.59-12.31-6.76-18.13-2.17-5.82-3.65-9.74-4.42-11.79-.19-.5-.45-.94-.78-1.32-.32-.38-.75-.74-1.29-1.08-.44-.28-.92-.48-1.46-.62-.53-.14-1.03-.22-1.48-.26V.83h14.26v1.73c-1.22.07-2.24.19-3.07.36-.83.18-1.25.49-1.25.95,0,.18.03.39.1.63.06.24.12.44.17.58.6,1.59,1.57,4.18,2.92,7.76,1.34,3.59,3.26,8.7,5.74,15.32,1.23-3,2.65-6.54,4.25-10.62,1.6-4.08,2.68-6.89,3.23-8.41.53-1.47.85-2.49.94-3.06.09-.57.13-1.03.13-1.39s-.17-.68-.5-.94c-.33-.25-.77-.47-1.32-.64-.53-.16-1.08-.28-1.63-.36-.55-.08-1.11-.15-1.68-.19V.83h12.83v1.73Z"/>
      <path class="cls-1" d="m181.06,4.91c1.52,1.59,2.71,3.5,3.57,5.75.86,2.24,1.29,4.73,1.29,7.45s-.44,5.22-1.31,7.46c-.87,2.24-2.09,4.14-3.65,5.71-1.51,1.56-3.26,2.75-5.25,3.6-1.99.84-4.12,1.26-6.37,1.26-2.4,0-4.61-.45-6.65-1.35-2.03-.9-3.78-2.15-5.24-3.75-1.46-1.57-2.6-3.48-3.44-5.72-.83-2.24-1.25-4.65-1.25-7.21,0-2.8.44-5.3,1.31-7.5.87-2.2,2.08-4.09,3.62-5.7,1.52-1.59,3.29-2.8,5.31-3.65,2.02-.84,4.13-1.26,6.33-1.26s4.44.43,6.46,1.29c2.02.86,3.77,2.07,5.25,3.62Zm-3.62,24.45c.91-1.47,1.57-3.14,1.98-5.01.41-1.86.62-3.94.62-6.25s-.23-4.54-.69-6.51c-.46-1.98-1.14-3.66-2.03-5.05-.89-1.38-2.01-2.45-3.35-3.22-1.34-.77-2.88-1.15-4.62-1.15-1.94,0-3.6.45-4.96,1.34-1.36.89-2.47,2.08-3.33,3.57-.81,1.43-1.41,3.09-1.81,5.01-.4,1.91-.6,3.92-.6,6.03,0,2.33.21,4.44.63,6.32.42,1.88,1.08,3.55,1.99,5.01.87,1.43,1.98,2.54,3.3,3.34,1.33.8,2.92,1.2,4.76,1.2,1.73,0,3.3-.4,4.69-1.22,1.39-.81,2.53-1.94,3.4-3.4Z"/>
      <path class="cls-1" d="m225.1,35.31h-9.28c-2.06-3.22-3.92-6.01-5.58-8.36-1.66-2.35-3.46-4.77-5.41-7.27h-3.52v10.94c0,.57.09,1.07.27,1.49.18.43.56.76,1.14.98.29.11.8.22,1.53.32.73.1,1.34.15,1.85.17v1.73h-14.58v-1.73c.39-.03.95-.09,1.69-.17.74-.08,1.25-.19,1.54-.32.49-.21.84-.52,1.06-.92.22-.4.33-.92.33-1.56V5.69c0-.57-.08-1.07-.24-1.51-.16-.44-.54-.77-1.14-1-.41-.15-.93-.28-1.58-.4-.65-.12-1.2-.2-1.65-.23V.83h15.92c1.46,0,2.83.15,4.11.45,1.28.3,2.44.78,3.48,1.45,1,.65,1.81,1.49,2.41,2.54.6,1.05.9,2.3.9,3.78,0,1.33-.2,2.5-.61,3.52-.41,1.02-1,1.9-1.8,2.65-.73.7-1.6,1.3-2.62,1.81s-2.15.94-3.38,1.3c1.7,2.25,3.11,4.15,4.24,5.69,1.13,1.54,2.51,3.41,4.14,5.61.71.97,1.36,1.69,1.93,2.15.57.46,1.15.84,1.71,1.13.42.21.95.37,1.58.49.63.11,1.16.18,1.58.19v1.73Zm-12.78-25.71c0-2.09-.6-3.75-1.8-4.97-1.2-1.22-2.89-1.83-5.08-1.83h-4.13v14.8h3.18c2.24,0,4.1-.72,5.59-2.15,1.49-1.43,2.24-3.38,2.24-5.84Z"/>
      <path class="cls-1" d="m258.98,4.91c1.52,1.59,2.71,3.5,3.57,5.75.86,2.24,1.29,4.73,1.29,7.45s-.44,5.22-1.31,7.46c-.87,2.24-2.09,4.14-3.65,5.71-1.51,1.56-3.26,2.75-5.25,3.6-1.99.84-4.12,1.26-6.37,1.26-2.4,0-4.61-.45-6.65-1.35-2.03-.9-3.78-2.15-5.24-3.75-1.46-1.57-2.6-3.48-3.44-5.72-.83-2.24-1.25-4.65-1.25-7.21,0-2.8.44-5.3,1.31-7.5.87-2.2,2.08-4.09,3.62-5.7,1.52-1.59,3.29-2.8,5.31-3.65,2.02-.84,4.13-1.26,6.33-1.26s4.44.43,6.46,1.29c2.02.86,3.77,2.07,5.25,3.62Zm-3.62,24.45c.91-1.47,1.57-3.14,1.98-5.01.41-1.86.62-3.94.62-6.25s-.23-4.54-.69-6.51c-.46-1.98-1.14-3.66-2.03-5.05-.89-1.38-2.01-2.45-3.35-3.22-1.34-.77-2.88-1.15-4.62-1.15-1.94,0-3.6.45-4.96,1.34-1.36.89-2.47,2.08-3.33,3.57-.81,1.43-1.41,3.09-1.81,5.01-.4,1.91-.6,3.92-.6,6.03,0,2.33.21,4.44.63,6.32.42,1.88,1.08,3.55,1.99,5.01.87,1.43,1.98,2.54,3.3,3.34s2.92,1.2,4.76,1.2c1.73,0,3.3-.4,4.69-1.22,1.39-.81,2.53-1.94,3.4-3.4Z"/>
    </g>
  </g>
</svg>